# cube.obj
#

mtllib block.mtl

o selection
 
v  -0.1  -0.1  -0.1
v  -0.1  -0.1   1.1
v  -0.1   1.1  -0.1
v  -0.1   1.1   1.1
v   1.1  -0.1  -0.1
v   1.1  -0.1   1.1
v   1.1   1.1  -0.1
v   1.1   1.1   1.1

vt 1.0 1.0
vt 0.0 1.0
vt 1.0 0.0
vt 0.0 0.0

vn  0.0  0.0  1.0
vn  0.0  0.0 -1.0
vn  0.0  1.0  0.0
vn  0.0 -1.0  0.0
vn  1.0  0.0  0.0
vn -1.0  0.0  0.0

usemtl selection

f  1/2/2  7/3/2  5/1/2
f  1/2/2  3/4/2  7/3/2 
f  1/1/6  4/4/6  3/3/6 
f  1/1/6  2/2/6  4/4/6 
f  3/1/3  8/4/3  7/3/3 
f  3/1/3  4/2/3  8/4/3 
f  5/2/5  7/4/5  8/3/5 
f  5/2/5  8/3/5  6/1/5 
f  1/3/4  5/1/4  6/2/4 
f  1/3/4  6/2/4  2/4/4 
f  2/1/1  6/2/1  8/4/1 
f  2/1/1  8/4/1  4/3/1